<svg id="visual" viewBox="0 0 1440 1024" width="1440" height="1024" xmlns="http://www.w3.org/2000/svg" xmlns:xlink="http://www.w3.org/1999/xlink" version="1.1"><g stroke-width="1" stroke-linejoin="bevel"><path d="M671 432.9L779 430.9L763 287.6Z" fill="#04102d" stroke="#04102d"></path><path d="M763 287.6L619 325.6L671 432.9Z" fill="#432d47" stroke="#432d47"></path><path d="M981 327.6L812 169.3L763 287.6Z" fill="#c5af9c" stroke="#c5af9c"></path><path d="M763 287.6L639 107.3L619 325.6Z" fill="#d5c8b3" stroke="#d5c8b3"></path><path d="M471 414.9L602 551.1L671 432.9Z" fill="#271e3b" stroke="#271e3b"></path><path d="M671 432.9L602 551.1L779 430.9Z" fill="#8d676a" stroke="#8d676a"></path><path d="M445 324.6L471 414.9L619 325.6Z" fill="#d5c8b3" stroke="#d5c8b3"></path><path d="M619 325.6L471 414.9L671 432.9Z" fill="#a17e78" stroke="#a17e78"></path><path d="M996 442.9L981 327.6L779 430.9Z" fill="#c5af9c" stroke="#c5af9c"></path><path d="M779 430.9L981 327.6L763 287.6Z" fill="#77525e" stroke="#77525e"></path><path d="M812 169.3L639 107.3L763 287.6Z" fill="#432d47" stroke="#432d47"></path><path d="M602 551.1L837 611.1L779 430.9Z" fill="#5e3e52" stroke="#5e3e52"></path><path d="M477 136.3L445 324.6L619 325.6Z" fill="#5e3e52" stroke="#5e3e52"></path><path d="M837 611.1L996 442.9L779 430.9Z" fill="#5e3e52" stroke="#5e3e52"></path><path d="M981 327.6L947 167.3L812 169.3Z" fill="#271e3b" stroke="#271e3b"></path><path d="M824 0L648 0L639 107.3Z" fill="#e5e2cc" stroke="#e5e2cc"></path><path d="M837 611.1L960 601.1L996 442.9Z" fill="#8d676a" stroke="#8d676a"></path><path d="M639 107.3L477 136.3L619 325.6Z" fill="#d5c8b3" stroke="#d5c8b3"></path><path d="M325 412.9L447 573.1L471 414.9Z" fill="#5e3e52" stroke="#5e3e52"></path><path d="M471 414.9L447 573.1L602 551.1Z" fill="#a17e78" stroke="#a17e78"></path><path d="M602 551.1L678 710.4L837 611.1Z" fill="#a17e78" stroke="#a17e78"></path><path d="M456 737.4L678 710.4L602 551.1Z" fill="#d5c8b3" stroke="#d5c8b3"></path><path d="M837 611.1L950 711.4L960 601.1Z" fill="#e5e2cc" stroke="#e5e2cc"></path><path d="M824 0L639 107.3L812 169.3Z" fill="#04102d" stroke="#04102d"></path><path d="M639 107.3L499 0L477 136.3Z" fill="#5e3e52" stroke="#5e3e52"></path><path d="M931 0L824 0L812 169.3Z" fill="#04102d" stroke="#04102d"></path><path d="M996 442.9L1116 318.6L981 327.6Z" fill="#77525e" stroke="#77525e"></path><path d="M981 327.6L1116 318.6L947 167.3Z" fill="#5e3e52" stroke="#5e3e52"></path><path d="M947 167.3L931 0L812 169.3Z" fill="#d5c8b3" stroke="#d5c8b3"></path><path d="M1108 476.9L1116 318.6L996 442.9Z" fill="#a17e78" stroke="#a17e78"></path><path d="M678 710.4L822 748.4L837 611.1Z" fill="#e5e2cc" stroke="#e5e2cc"></path><path d="M1136 616.1L1108 476.9L960 601.1Z" fill="#e5e2cc" stroke="#e5e2cc"></path><path d="M960 601.1L1108 476.9L996 442.9Z" fill="#e5e2cc" stroke="#e5e2cc"></path><path d="M445 324.6L325 412.9L471 414.9Z" fill="#432d47" stroke="#432d47"></path><path d="M285 302.6L325 412.9L445 324.6Z" fill="#e5e2cc" stroke="#e5e2cc"></path><path d="M822 748.4L950 711.4L837 611.1Z" fill="#8d676a" stroke="#8d676a"></path><path d="M1129 115.3L931 0L947 167.3Z" fill="#b49689" stroke="#b49689"></path><path d="M648 0L499 0L639 107.3Z" fill="#5e3e52" stroke="#5e3e52"></path><path d="M477 136.3L345 136.3L445 324.6Z" fill="#a17e78" stroke="#a17e78"></path><path d="M325 412.9L354 597.1L447 573.1Z" fill="#c5af9c" stroke="#c5af9c"></path><path d="M447 573.1L456 737.4L602 551.1Z" fill="#271e3b" stroke="#271e3b"></path><path d="M335 0L345 136.3L477 136.3Z" fill="#432d47" stroke="#432d47"></path><path d="M345 136.3L285 302.6L445 324.6Z" fill="#b49689" stroke="#b49689"></path><path d="M325 412.9L184 420.9L354 597.1Z" fill="#c5af9c" stroke="#c5af9c"></path><path d="M354 597.1L456 737.4L447 573.1Z" fill="#8d676a" stroke="#8d676a"></path><path d="M656 909.7L808 905.7L822 748.4Z" fill="#77525e" stroke="#77525e"></path><path d="M1116 318.6L1129 115.3L947 167.3Z" fill="#77525e" stroke="#77525e"></path><path d="M1285 282.6L1129 115.3L1116 318.6Z" fill="#e5e2cc" stroke="#e5e2cc"></path><path d="M950 711.4L1136 616.1L960 601.1Z" fill="#432d47" stroke="#432d47"></path><path d="M1108 476.9L1254 457.9L1116 318.6Z" fill="#b49689" stroke="#b49689"></path><path d="M499 0L335 0L477 136.3Z" fill="#04102d" stroke="#04102d"></path><path d="M196 124.3L184 302.6L285 302.6Z" fill="#5e3e52" stroke="#5e3e52"></path><path d="M1129 115.3L1119 0L931 0Z" fill="#77525e" stroke="#77525e"></path><path d="M1243 566.1L1254 457.9L1108 476.9Z" fill="#e5e2cc" stroke="#e5e2cc"></path><path d="M1129 115.3L1261 0L1119 0Z" fill="#d5c8b3" stroke="#d5c8b3"></path><path d="M338 767.4L514 863.7L456 737.4Z" fill="#c5af9c" stroke="#c5af9c"></path><path d="M456 737.4L514 863.7L678 710.4Z" fill="#432d47" stroke="#432d47"></path><path d="M822 748.4L986 913.7L950 711.4Z" fill="#d5c8b3" stroke="#d5c8b3"></path><path d="M285 302.6L184 420.9L325 412.9Z" fill="#04102d" stroke="#04102d"></path><path d="M354 597.1L338 767.4L456 737.4Z" fill="#a17e78" stroke="#a17e78"></path><path d="M184 302.6L184 420.9L285 302.6Z" fill="#a17e78" stroke="#a17e78"></path><path d="M196 124.3L285 302.6L345 136.3Z" fill="#271e3b" stroke="#271e3b"></path><path d="M656 909.7L822 748.4L678 710.4Z" fill="#a17e78" stroke="#a17e78"></path><path d="M950 711.4L1114 753.4L1136 616.1Z" fill="#5e3e52" stroke="#5e3e52"></path><path d="M514 863.7L656 909.7L678 710.4Z" fill="#04102d" stroke="#04102d"></path><path d="M986 913.7L1114 753.4L950 711.4Z" fill="#e5e2cc" stroke="#e5e2cc"></path><path d="M1136 616.1L1243 566.1L1108 476.9Z" fill="#d5c8b3" stroke="#d5c8b3"></path><path d="M1262 763.4L1243 566.1L1136 616.1Z" fill="#77525e" stroke="#77525e"></path><path d="M141 591.1L338 767.4L354 597.1Z" fill="#271e3b" stroke="#271e3b"></path><path d="M1313 181.3L1285 282.6L1440 292.6Z" fill="#04102d" stroke="#04102d"></path><path d="M1254 457.9L1285 282.6L1116 318.6Z" fill="#b49689" stroke="#b49689"></path><path d="M335 0L196 124.3L345 136.3Z" fill="#c5af9c" stroke="#c5af9c"></path><path d="M953 1024L986 913.7L808 905.7Z" fill="#b49689" stroke="#b49689"></path><path d="M808 905.7L986 913.7L822 748.4Z" fill="#c5af9c" stroke="#c5af9c"></path><path d="M1440 412.9L1285 282.6L1254 457.9Z" fill="#432d47" stroke="#432d47"></path><path d="M1285 282.6L1313 181.3L1129 115.3Z" fill="#77525e" stroke="#77525e"></path><path d="M0 473.9L141 591.1L184 420.9Z" fill="#c5af9c" stroke="#c5af9c"></path><path d="M184 420.9L141 591.1L354 597.1Z" fill="#271e3b" stroke="#271e3b"></path><path d="M0 287.6L184 420.9L184 302.6Z" fill="#432d47" stroke="#432d47"></path><path d="M1313 181.3L1261 0L1129 115.3Z" fill="#77525e" stroke="#77525e"></path><path d="M461 1024L677 1024L656 909.7Z" fill="#a17e78" stroke="#a17e78"></path><path d="M656 909.7L781 1024L808 905.7Z" fill="#5e3e52" stroke="#5e3e52"></path><path d="M461 1024L656 909.7L514 863.7Z" fill="#8d676a" stroke="#8d676a"></path><path d="M677 1024L781 1024L656 909.7Z" fill="#04102d" stroke="#04102d"></path><path d="M1114 753.4L1262 763.4L1136 616.1Z" fill="#d5c8b3" stroke="#d5c8b3"></path><path d="M986 913.7L1119 897.7L1114 753.4Z" fill="#271e3b" stroke="#271e3b"></path><path d="M1157 1024L1119 897.7L986 913.7Z" fill="#271e3b" stroke="#271e3b"></path><path d="M130 739.4L286 869.7L338 767.4Z" fill="#8d676a" stroke="#8d676a"></path><path d="M338 767.4L286 869.7L514 863.7Z" fill="#b49689" stroke="#b49689"></path><path d="M1258 850.7L1262 763.4L1114 753.4Z" fill="#c5af9c" stroke="#c5af9c"></path><path d="M1440 600.1L1440 412.9L1254 457.9Z" fill="#b49689" stroke="#b49689"></path><path d="M335 0L133 0L196 124.3Z" fill="#04102d" stroke="#04102d"></path><path d="M0 176.3L0 287.6L184 302.6Z" fill="#e5e2cc" stroke="#e5e2cc"></path><path d="M781 1024L953 1024L808 905.7Z" fill="#432d47" stroke="#432d47"></path><path d="M0 701.4L130 739.4L141 591.1Z" fill="#04102d" stroke="#04102d"></path><path d="M141 591.1L130 739.4L338 767.4Z" fill="#5e3e52" stroke="#5e3e52"></path><path d="M289 1024L461 1024L286 869.7Z" fill="#271e3b" stroke="#271e3b"></path><path d="M286 869.7L461 1024L514 863.7Z" fill="#a17e78" stroke="#a17e78"></path><path d="M1440 600.1L1254 457.9L1243 566.1Z" fill="#a17e78" stroke="#a17e78"></path><path d="M1313 181.3L1440 0L1261 0Z" fill="#77525e" stroke="#77525e"></path><path d="M1440 412.9L1440 292.6L1285 282.6Z" fill="#5e3e52" stroke="#5e3e52"></path><path d="M1119 897.7L1258 850.7L1114 753.4Z" fill="#c5af9c" stroke="#c5af9c"></path><path d="M1262 763.4L1440 600.1L1243 566.1Z" fill="#b49689" stroke="#b49689"></path><path d="M1157 1024L1258 850.7L1119 897.7Z" fill="#b49689" stroke="#b49689"></path><path d="M0 176.3L184 302.6L196 124.3Z" fill="#a17e78" stroke="#a17e78"></path><path d="M0 287.6L0 473.9L184 420.9Z" fill="#c5af9c" stroke="#c5af9c"></path><path d="M1440 292.6L1440 175.3L1313 181.3Z" fill="#271e3b" stroke="#271e3b"></path><path d="M133 0L0 176.3L196 124.3Z" fill="#5e3e52" stroke="#5e3e52"></path><path d="M130 739.4L151 849.7L286 869.7Z" fill="#04102d" stroke="#04102d"></path><path d="M0 837.7L151 849.7L130 739.4Z" fill="#432d47" stroke="#432d47"></path><path d="M1440 738.4L1440 600.1L1262 763.4Z" fill="#271e3b" stroke="#271e3b"></path><path d="M0 473.9L0 606.1L141 591.1Z" fill="#5e3e52" stroke="#5e3e52"></path><path d="M953 1024L1157 1024L986 913.7Z" fill="#d5c8b3" stroke="#d5c8b3"></path><path d="M1440 870.7L1440 738.4L1262 763.4Z" fill="#e5e2cc" stroke="#e5e2cc"></path><path d="M189 1024L289 1024L286 869.7Z" fill="#d5c8b3" stroke="#d5c8b3"></path><path d="M0 606.1L0 701.4L141 591.1Z" fill="#c5af9c" stroke="#c5af9c"></path><path d="M151 849.7L189 1024L286 869.7Z" fill="#5e3e52" stroke="#5e3e52"></path><path d="M1440 175.3L1440 0L1313 181.3Z" fill="#d5c8b3" stroke="#d5c8b3"></path><path d="M1440 870.7L1262 763.4L1258 850.7Z" fill="#271e3b" stroke="#271e3b"></path><path d="M133 0L0 0L0 176.3Z" fill="#77525e" stroke="#77525e"></path><path d="M0 1024L189 1024L151 849.7Z" fill="#8d676a" stroke="#8d676a"></path><path d="M0 701.4L0 837.7L130 739.4Z" fill="#04102d" stroke="#04102d"></path><path d="M1157 1024L1293 1024L1258 850.7Z" fill="#77525e" stroke="#77525e"></path><path d="M1293 1024L1440 870.7L1258 850.7Z" fill="#c5af9c" stroke="#c5af9c"></path><path d="M1293 1024L1440 1024L1440 870.7Z" fill="#b49689" stroke="#b49689"></path><path d="M0 837.7L0 1024L151 849.7Z" fill="#e5e2cc" stroke="#e5e2cc"></path></g></svg>